<svg width="456" height="252" viewBox="0 0 456 252" fill="none" xmlns="http://www.w3.org/2000/svg">
<path d="M456 188.978C455.436 191.798 453.744 194.242 450.924 196.31C448.104 198.378 446.506 200.164 446.13 201.668C444.814 202.796 443.498 203.454 442.182 203.642C440.866 203.83 439.55 203.924 438.234 203.924C436.542 204.112 435.038 204.394 433.722 204.77C432.406 204.958 431.278 205.992 430.338 207.872C426.202 206.744 421.408 205.71 415.955 204.77C410.503 203.83 405.427 202.232 400.727 199.976C401.103 198.472 400.539 197.344 399.035 196.592C397.719 195.84 396.309 195.37 394.805 195.182C388.037 185.406 380.893 176.006 373.373 166.982C365.853 157.957 358.333 148.933 350.813 139.909C343.481 130.697 336.712 120.921 330.508 110.581C329.38 121.673 328.816 131.731 328.816 140.755C329.004 149.591 329.286 158.427 329.662 167.264C329.662 168.016 329.662 168.768 329.662 169.52C329.85 170.272 329.944 171.024 329.944 171.776C330.508 171.776 331.73 171.776 333.61 171.776C336.806 171.964 340.284 171.87 344.045 171.494C347.993 171.118 350.155 169.52 350.531 166.7C358.803 168.016 366.135 170.554 372.527 174.314C378.919 178.074 383.055 183.056 384.935 189.26C379.295 189.824 374.313 190.2 369.989 190.388C365.665 190.388 361.529 190.388 357.581 190.388C353.257 190.388 348.933 190.482 344.609 190.67C340.284 190.858 335.396 191.422 329.944 192.362C330.132 193.678 330.226 195.088 330.226 196.592C330.414 198.096 330.602 199.6 330.79 201.104C331.166 205.804 331.448 210.598 331.636 215.486C332.012 220.186 332.012 224.792 331.636 229.304C331.26 233.816 330.32 237.952 328.816 241.713C327.5 245.661 325.338 248.951 322.33 251.583C314.998 248.387 310.298 243.405 308.23 236.636C306.35 229.868 304.752 222.066 303.436 213.23C307.572 213.042 309.922 211.444 310.486 208.436C311.05 205.428 311.238 202.044 311.05 198.284C311.05 197.156 311.05 196.028 311.05 194.9C311.05 193.772 311.05 192.644 311.05 191.516C307.854 191.328 304.188 191.328 300.052 191.516C295.916 191.516 291.78 191.986 287.644 192.926C283.696 193.678 280.406 195.182 277.774 197.438C273.074 197.062 269.408 195.746 266.776 193.49C264.143 191.046 261.699 188.414 259.443 185.594C257.187 182.774 254.367 180.518 250.983 178.826C246.283 183.526 241.677 187.286 237.165 190.106C232.653 192.926 228.423 197.062 224.475 202.514C223.159 202.326 221.937 202.044 220.809 201.668C219.681 201.104 218.647 200.446 217.707 199.694C216.767 200.634 216.861 201.48 217.989 202.232C218.553 202.608 219.023 203.078 219.399 203.642C219.775 204.018 219.869 204.676 219.681 205.616C216.673 205.804 214.417 206.838 212.913 208.718C211.597 210.41 209.623 211.35 206.991 211.538C205.487 211.538 204.077 211.256 202.761 210.692C201.445 209.94 200.223 209.188 199.095 208.436C197.779 207.496 196.369 206.65 194.865 205.898C193.549 205.146 191.951 204.77 190.07 204.77C190.447 203.454 191.481 202.796 193.173 202.796C195.053 202.608 195.993 201.574 195.993 199.694C197.873 200.822 199.377 201.292 200.505 201.104C201.633 200.916 203.043 200.07 204.735 198.566C204.359 197.626 203.795 197.438 203.043 198.002C202.291 198.378 201.915 198.566 201.915 198.566C201.351 197.25 201.445 196.31 202.197 195.746C203.137 195.182 204.265 194.712 205.581 194.336C206.521 193.96 207.461 193.49 208.401 192.926C209.341 192.362 209.811 191.61 209.811 190.67C211.691 191.046 213.195 190.858 214.323 190.106C215.639 189.354 216.861 188.414 217.989 187.286C219.117 186.346 220.339 185.5 221.655 184.748C222.971 183.808 224.569 183.526 226.449 183.902C226.449 183.15 226.073 182.774 225.321 182.774C224.757 182.774 224.475 182.774 224.475 182.774C226.543 179.766 229.175 177.134 232.371 174.878C235.755 172.622 238.763 170.272 241.395 167.828C244.215 165.384 245.813 162.469 246.189 159.085C248.445 157.581 250.513 156.265 252.393 155.137C254.461 154.009 255.589 152.411 255.777 150.343C256.905 150.531 257.845 150.343 258.597 149.779C259.349 149.027 260.101 148.087 260.853 146.959C261.793 146.019 262.733 145.079 263.673 144.139C264.801 143.011 266.118 142.447 267.622 142.447C267.058 139.251 267.716 136.243 269.596 133.423C271.476 130.415 274.014 127.689 277.21 125.245C280.406 122.613 283.508 120.263 286.516 118.195C287.08 117.819 287.644 117.443 288.208 117.067C288.96 116.503 289.618 116.033 290.182 115.657C290.182 113.025 290.746 110.487 291.874 108.043C293.19 105.411 294.6 102.873 296.104 100.429C297.42 98.5487 298.548 96.7626 299.488 95.0706C300.428 93.1906 300.898 91.4985 300.898 89.9945C298.454 90.1825 296.104 90.2765 293.848 90.2765C291.592 90.2765 289.43 90.2765 287.362 90.2765C282.098 90.2765 277.116 90.5585 272.416 91.1226C267.904 91.6866 263.297 93.3786 258.597 96.1986C253.709 91.3106 248.915 86.0465 244.215 80.4064C239.703 74.5783 236.225 68.6563 233.781 62.6402C236.977 60.9482 239.985 60.5721 242.805 61.5122C245.625 62.4522 248.445 63.6742 251.265 65.1782C252.581 65.7422 253.897 66.4002 255.213 67.1522C256.529 67.7162 257.939 68.1862 259.443 68.5622C263.955 69.6903 268.562 70.2543 273.262 70.2543C277.962 70.0663 282.85 69.6903 287.926 69.1263C291.31 68.9383 294.694 68.7503 298.078 68.5622C301.65 68.1862 305.222 68.0922 308.794 68.2802C309.17 63.3922 309.264 57.8461 309.076 51.642C308.888 45.2499 308.418 38.6699 307.666 31.9018C307.29 27.5777 306.35 23.6297 304.846 20.0576C303.53 16.2976 302.872 12.9135 302.872 9.90548C302.872 8.02545 303.248 6.33343 304 4.82941C304.94 3.13738 306.444 1.63336 308.512 0.317352C310.956 3.8894 314.058 7.36745 317.818 10.7515C321.766 14.1355 325.526 17.5196 329.098 20.9036C332.67 24.2877 335.02 27.9537 336.148 31.9018C336.9 33.9698 337.088 35.6618 336.712 36.9778C336.524 38.1059 336.148 39.4219 335.584 40.9259C335.208 41.6779 334.738 42.6179 334.174 43.7459C333.798 44.8739 333.516 46.19 333.328 47.694C332.764 51.078 332.388 54.4621 332.2 57.8461C332.2 61.2302 332.294 63.6742 332.482 65.1782C337.934 66.6822 342.635 67.4342 346.583 67.4342C350.719 67.2462 355.419 66.8702 360.683 66.3062C362.563 66.1182 364.443 65.9302 366.323 65.7422C368.391 65.5542 370.553 65.3662 372.809 65.1782C373.749 64.9902 374.219 64.3322 374.219 63.2042C374.219 62.0762 374.689 61.4182 375.629 61.2302C380.141 62.7342 384.747 64.1442 389.447 65.4602C394.335 66.5882 398.565 68.3743 402.137 70.8183C405.897 73.0743 408.247 76.7404 409.187 81.8164C408.247 82.0044 407.307 81.9104 406.367 81.5344C405.615 80.9704 405.239 80.6884 405.239 80.6884C405.051 83.1324 404.393 84.3545 403.265 84.3545C402.325 84.1665 401.667 84.9185 401.291 86.6105C387.379 86.9865 375.159 87.3625 364.631 87.7385C354.291 88.1145 343.575 88.4905 332.482 88.8665C334.174 93.5666 337.182 97.4206 341.506 100.429C345.831 103.249 349.779 106.257 353.351 109.453C358.239 113.589 363.033 118.195 367.733 123.271C372.433 128.347 377.133 132.577 381.833 135.961C388.789 140.849 396.121 145.361 403.829 149.497C411.725 153.633 419.34 158.051 426.672 162.751C434.192 167.264 440.678 172.716 446.13 179.108C445.754 180.988 446.412 182.586 448.104 183.902C449.984 185.218 451.864 186.44 453.744 187.568C454.872 188.132 455.624 188.602 456 188.978ZM311.05 173.75C310.862 167.17 310.674 160.401 310.486 153.445C310.486 146.489 310.298 140.097 309.922 134.269C309.734 128.253 309.076 123.647 307.948 120.451C302.12 127.031 296.292 133.611 290.464 140.191C284.824 146.583 278.244 152.223 270.724 157.111C270.348 159.555 269.22 161.623 267.34 163.315C265.46 164.82 263.391 166.324 261.135 167.828C259.067 169.332 257.375 171.212 256.059 173.468C260.571 174.784 265.553 175.348 271.006 175.16C276.458 174.972 282.004 174.69 287.644 174.314C291.592 173.938 295.54 173.656 299.488 173.468C303.436 173.28 307.29 173.374 311.05 173.75ZM241.959 162.469C243.087 163.221 242.899 164.255 241.395 165.572C240.079 166.888 238.575 168.204 236.883 169.52C235.943 170.084 235.003 170.742 234.063 171.494C233.311 172.058 232.747 172.622 232.371 173.186C231.431 172.434 231.525 171.494 232.653 170.366C233.969 169.238 235.379 168.11 236.883 166.982C238.199 166.23 239.327 165.478 240.267 164.726C241.207 163.785 241.771 163.033 241.959 162.469Z" fill="#CA323D"/>
<path d="M200.223 63.2042C196.463 63.9562 192.797 65.1782 189.225 66.8702C185.652 68.5623 182.55 70.7243 179.918 73.3563C180.858 93.2846 181.61 113.401 182.174 133.705C182.926 154.009 183.302 174.22 183.302 194.336C183.302 201.48 182.926 208.718 182.174 216.05C181.61 223.194 180.294 230.244 178.226 237.2C177.098 237.388 175.688 237.576 173.996 237.764C172.492 237.952 171.27 238.422 170.33 239.174C166.57 237.67 163.562 235.132 161.306 231.56C159.05 227.988 157.452 224.322 156.512 220.562C149.368 219.622 140.72 219.058 130.568 218.87C120.604 218.494 110.075 218.494 98.9833 218.87C88.0792 219.058 77.551 219.622 67.3989 220.562C57.4348 221.314 48.9746 222.442 42.0185 223.946C40.8905 224.134 40.2325 224.698 40.0445 225.638C39.8565 226.578 39.1045 227.33 37.7885 227.894C33.2764 225.262 29.4224 221.972 26.2263 218.024C23.2183 213.888 19.8343 210.128 16.0742 206.744C16.8262 205.24 18.5182 204.958 21.1503 205.898C21.1503 205.898 20.6803 205.146 19.7403 203.642C18.8002 201.95 18.3302 200.446 18.3302 199.13C18.3302 197.814 18.5182 196.686 18.8943 195.746C19.2703 194.618 19.7403 193.584 20.3043 192.644C20.8683 191.516 21.2443 190.482 21.4323 189.542C21.8083 188.414 21.6203 187.192 20.8683 185.876C23.1243 178.168 24.3463 170.272 24.5343 162.187C24.7223 153.915 25.2863 145.831 26.2263 137.935C25.4743 136.055 24.1583 134.551 22.2783 133.423C20.5863 132.107 18.9883 130.885 17.4842 129.757C19.7403 127.501 22.1843 126.749 24.8163 127.501C25.0043 125.433 25.0983 123.271 25.0983 121.015C25.2863 118.759 25.3803 116.597 25.3803 114.529C25.3803 107.385 24.8163 99.9587 23.6883 92.2506C22.7483 84.5425 20.5863 77.4924 17.2022 71.1003C16.4502 70.7243 15.4162 70.5363 14.1002 70.5363C12.9722 70.5363 11.9382 70.6303 10.9981 70.8183C11.1861 69.8783 11.4682 69.1262 11.8442 68.5622C12.4082 67.9982 12.6902 67.7162 12.6902 67.7162C9.68213 67.3402 7.14409 66.2122 5.07606 64.3322C3.19604 62.4522 1.50402 60.2901 0 57.8461C2.06803 56.3421 4.60606 55.1201 7.6141 54.18C10.6221 53.052 12.3142 51.266 12.6902 48.822C15.8862 48.822 18.9883 48.54 21.9963 47.976C25.0043 47.412 27.7304 46.0959 30.1744 44.0279C45.5906 43.6519 60.8188 42.4299 75.859 40.3619C91.0872 38.2938 106.409 37.2598 121.826 37.2598C124.834 37.2598 127.842 37.2598 130.85 37.2598C133.858 37.2598 136.866 37.4478 139.874 37.8238C144.762 35.9438 150.026 35.0038 155.666 35.0038C162.434 35.0038 169.578 36.3198 177.098 38.9519C184.806 41.3959 192.515 45.7199 200.223 51.924C199.847 53.24 199.659 54.3681 199.659 55.3081C199.847 56.0601 200.035 56.8121 200.223 57.5641C200.411 58.3161 200.505 59.1621 200.505 60.1021C200.693 60.8542 200.599 61.8882 200.223 63.2042ZM154.82 200.822C155.196 176.382 155.196 151.941 154.82 127.501C154.444 103.061 152.376 78.8084 148.616 54.7441C146.924 54.7441 145.044 54.7441 142.976 54.7441C141.096 54.7441 139.216 54.7441 137.336 54.7441C127.372 54.7441 116.656 54.9321 105.187 55.3081C93.9073 55.6841 82.9091 56.9061 72.193 58.9741C61.6648 60.8541 52.6407 64.2382 45.1206 69.1263C46.8126 71.3823 47.7526 73.5443 47.9406 75.6123C48.1286 77.6804 48.2226 79.9364 48.2226 82.3804C48.2226 83.5084 48.2226 84.4484 48.2226 85.2005C48.2226 87.8325 48.1286 90.5585 47.9406 93.3786C47.9406 96.0106 47.8466 98.5486 47.6586 100.993C47.4706 104.753 47.2826 108.513 47.0946 112.273C47.0946 115.845 47.1886 119.605 47.3766 123.553C52.2647 123.553 56.6827 123.177 60.6308 122.425C64.7669 121.673 69.1849 120.921 73.885 120.169C75.765 119.793 77.551 119.605 79.2431 119.605C81.1231 119.605 83.0031 119.699 84.8831 119.887C85.4471 119.887 86.1051 119.887 86.8571 119.887C87.6092 119.887 88.3612 119.887 89.1132 119.887C92.3092 119.887 95.3173 119.323 98.1373 118.195C101.145 116.879 104.435 116.221 108.007 116.221C114.024 116.221 119.57 117.631 124.646 120.451C129.91 123.083 135.08 125.809 140.156 128.629C141.472 129.569 141.942 130.791 141.566 132.295C141.378 133.799 140.814 134.739 139.874 135.115C124.458 137.371 109.041 139.157 93.6252 140.473C78.209 141.601 62.6988 142.635 47.0946 143.575C47.2826 149.967 47.3766 156.453 47.3766 163.033C47.3766 169.426 47.2826 175.912 47.0946 182.492C47.0946 185.688 47.0946 188.978 47.0946 192.362C47.0946 195.558 47.0946 198.754 47.0946 201.95C64.9549 200.634 82.9091 199.694 100.957 199.13C119.194 198.378 137.148 198.942 154.82 200.822Z" fill="#CA323D"/>
</svg>
